<mxfile host="app.diagrams.net" agent="Mozilla/5.0 (Macintosh; Intel Mac OS X 10.15; rv:141.0) Gecko/20100101 Firefox/141.0" version="28.2.3">
  <diagram name="Page-1" id="74b105a0-9070-1c63-61bc-23e55f88626e">
    <mxGraphModel dx="4130.5" dy="1290" grid="1" gridSize="10" guides="1" tooltips="1" connect="1" arrows="1" fold="1" page="1" pageScale="1.5" pageWidth="1169" pageHeight="826" background="none" math="0" shadow="0">
      <root>
        <mxCell id="0" style=";html=1;" />
        <mxCell id="1" style=";html=1;" parent="0" />
        <mxCell id="10b056a9c633e61c-30" value="FacthorAPI" style="text;strokeColor=none;fillColor=none;html=1;fontSize=24;fontStyle=1;verticalAlign=middle;align=center;" parent="1" vertex="1">
          <mxGeometry x="80" y="40" width="1590" height="40" as="geometry" />
        </mxCell>
        <mxCell id="cU6b7BoLXLaZMFe-XiS3-1" value="Validacion de acuerdo al tipo&#xa;de documento" style="strokeWidth=2;dashed=0;align=center;fontSize=12;fillColor=#c0f5a9;verticalLabelPosition=bottom;verticalAlign=top;shape=mxgraph.eip.recipient_list;" vertex="1" parent="1">
          <mxGeometry x="640" y="1230" width="150" height="90" as="geometry" />
        </mxCell>
        <mxCell id="cU6b7BoLXLaZMFe-XiS3-8" value="Job Library" style="strokeWidth=2;dashed=0;align=center;fontSize=12;fillColor=#c0f5a9;verticalLabelPosition=bottom;verticalAlign=top;shape=mxgraph.eip.composed_message_processor;" vertex="1" parent="1">
          <mxGeometry x="910" y="1230" width="150" height="90" as="geometry" />
        </mxCell>
        <mxCell id="cU6b7BoLXLaZMFe-XiS3-9" value="MySQL Database" style="strokeWidth=2;dashed=0;align=center;fontSize=12;verticalLabelPosition=bottom;verticalAlign=top;shape=mxgraph.eip.message_store;fillColor=#c0f5a9" vertex="1" parent="1">
          <mxGeometry x="1540" y="1350" width="150" height="90" as="geometry" />
        </mxCell>
        <mxCell id="cU6b7BoLXLaZMFe-XiS3-10" value="Endpoint Documentos" style="fillColor=#c0f5a9;dashed=0;outlineConnect=0;strokeWidth=2;html=1;align=center;fontSize=8;verticalLabelPosition=bottom;verticalAlign=top;shape=mxgraph.eip.service_activator;" vertex="1" parent="1">
          <mxGeometry x="170" y="1230" width="150" height="90" as="geometry" />
        </mxCell>
        <mxCell id="cU6b7BoLXLaZMFe-XiS3-11" value="Rules Library" style="strokeWidth=2;dashed=0;align=center;fontSize=12;fillColor=#c0f5a9;verticalLabelPosition=bottom;verticalAlign=top;shape=mxgraph.eip.composed_message_processor;" vertex="1" parent="1">
          <mxGeometry x="910" y="1020" width="150" height="90" as="geometry" />
        </mxCell>
        <mxCell id="cU6b7BoLXLaZMFe-XiS3-12" style="edgeStyle=orthogonalEdgeStyle;rounded=0;orthogonalLoop=1;jettySize=auto;html=1;entryX=0.5;entryY=0;entryDx=0;entryDy=0;entryPerimeter=0;" edge="1" parent="1" source="cU6b7BoLXLaZMFe-XiS3-11" target="cU6b7BoLXLaZMFe-XiS3-1">
          <mxGeometry relative="1" as="geometry" />
        </mxCell>
        <mxCell id="cU6b7BoLXLaZMFe-XiS3-14" style="edgeStyle=orthogonalEdgeStyle;rounded=0;orthogonalLoop=1;jettySize=auto;html=1;entryX=0;entryY=0.5;entryDx=0;entryDy=0;entryPerimeter=0;" edge="1" parent="1" source="cU6b7BoLXLaZMFe-XiS3-1" target="cU6b7BoLXLaZMFe-XiS3-8">
          <mxGeometry relative="1" as="geometry" />
        </mxCell>
        <mxCell id="cU6b7BoLXLaZMFe-XiS3-15" value="User Library" style="strokeWidth=2;dashed=0;align=center;fontSize=12;fillColor=#c0f5a9;verticalLabelPosition=bottom;verticalAlign=top;shape=mxgraph.eip.composed_message_processor;" vertex="1" parent="1">
          <mxGeometry x="910" y="1410" width="150" height="90" as="geometry" />
        </mxCell>
        <mxCell id="cU6b7BoLXLaZMFe-XiS3-17" value="" style="points=[];aspect=fixed;html=1;align=center;shadow=0;dashed=0;fillColor=#FF6A00;strokeColor=none;shape=mxgraph.alibaba_cloud.cloud_auth;" vertex="1" parent="1">
          <mxGeometry x="196.54000000000002" y="1480" width="76.92" height="70" as="geometry" />
        </mxCell>
        <mxCell id="cU6b7BoLXLaZMFe-XiS3-19" value="Actor" style="shape=umlActor;verticalLabelPosition=bottom;verticalAlign=top;html=1;outlineConnect=0;" vertex="1" parent="1">
          <mxGeometry x="-50" y="1470" width="30" height="60" as="geometry" />
        </mxCell>
        <mxCell id="cU6b7BoLXLaZMFe-XiS3-22" style="edgeStyle=orthogonalEdgeStyle;rounded=0;orthogonalLoop=1;jettySize=auto;html=1;entryX=0.623;entryY=0.074;entryDx=0;entryDy=0;entryPerimeter=0;" edge="1" parent="1" source="cU6b7BoLXLaZMFe-XiS3-10" target="cU6b7BoLXLaZMFe-XiS3-17">
          <mxGeometry relative="1" as="geometry" />
        </mxCell>
        <mxCell id="cU6b7BoLXLaZMFe-XiS3-29" value="JWT" style="edgeLabel;html=1;align=center;verticalAlign=middle;resizable=0;points=[];" vertex="1" connectable="0" parent="cU6b7BoLXLaZMFe-XiS3-22">
          <mxGeometry x="-0.0798" y="2" relative="1" as="geometry">
            <mxPoint as="offset" />
          </mxGeometry>
        </mxCell>
        <mxCell id="cU6b7BoLXLaZMFe-XiS3-24" style="edgeStyle=orthogonalEdgeStyle;rounded=0;orthogonalLoop=1;jettySize=auto;html=1;entryX=0;entryY=0.5;entryDx=0;entryDy=0;entryPerimeter=0;" edge="1" parent="1" source="cU6b7BoLXLaZMFe-XiS3-19" target="cU6b7BoLXLaZMFe-XiS3-10">
          <mxGeometry relative="1" as="geometry" />
        </mxCell>
        <mxCell id="cU6b7BoLXLaZMFe-XiS3-25" value="&lt;div&gt;Endpoint Configuracion&lt;/div&gt;&lt;div&gt;&lt;br&gt;&lt;/div&gt;" style="fillColor=#c0f5a9;dashed=0;outlineConnect=0;strokeWidth=2;html=1;align=center;fontSize=8;verticalLabelPosition=bottom;verticalAlign=top;shape=mxgraph.eip.service_activator;" vertex="1" parent="1">
          <mxGeometry x="170" y="1720" width="150" height="90" as="geometry" />
        </mxCell>
        <mxCell id="cU6b7BoLXLaZMFe-XiS3-27" style="edgeStyle=orthogonalEdgeStyle;rounded=0;orthogonalLoop=1;jettySize=auto;html=1;entryX=0.626;entryY=0.952;entryDx=0;entryDy=0;entryPerimeter=0;" edge="1" parent="1" source="cU6b7BoLXLaZMFe-XiS3-25" target="cU6b7BoLXLaZMFe-XiS3-17">
          <mxGeometry relative="1" as="geometry" />
        </mxCell>
        <mxCell id="cU6b7BoLXLaZMFe-XiS3-28" value="JWT" style="edgeLabel;html=1;align=center;verticalAlign=middle;resizable=0;points=[];" vertex="1" connectable="0" parent="cU6b7BoLXLaZMFe-XiS3-27">
          <mxGeometry x="0.0592" y="-1" relative="1" as="geometry">
            <mxPoint as="offset" />
          </mxGeometry>
        </mxCell>
        <mxCell id="cU6b7BoLXLaZMFe-XiS3-34" style="edgeStyle=orthogonalEdgeStyle;rounded=0;orthogonalLoop=1;jettySize=auto;html=1;" edge="1" parent="1" source="cU6b7BoLXLaZMFe-XiS3-31" target="cU6b7BoLXLaZMFe-XiS3-1">
          <mxGeometry relative="1" as="geometry" />
        </mxCell>
        <mxCell id="cU6b7BoLXLaZMFe-XiS3-31" value="Validar usuario y configuracion" style="fillColor=#c0f5a9;dashed=0;outlineConnect=0;strokeWidth=2;html=1;align=center;fontSize=8;verticalLabelPosition=bottom;verticalAlign=top;shape=mxgraph.eip.selective_consumer;" vertex="1" parent="1">
          <mxGeometry x="410" y="1230" width="150" height="90" as="geometry" />
        </mxCell>
        <mxCell id="cU6b7BoLXLaZMFe-XiS3-32" style="edgeStyle=orthogonalEdgeStyle;rounded=0;orthogonalLoop=1;jettySize=auto;html=1;entryX=0;entryY=0.5;entryDx=0;entryDy=0;entryPerimeter=0;" edge="1" parent="1" source="cU6b7BoLXLaZMFe-XiS3-10" target="cU6b7BoLXLaZMFe-XiS3-31">
          <mxGeometry relative="1" as="geometry" />
        </mxCell>
        <mxCell id="cU6b7BoLXLaZMFe-XiS3-33" style="edgeStyle=orthogonalEdgeStyle;rounded=0;orthogonalLoop=1;jettySize=auto;html=1;entryX=0;entryY=0.5;entryDx=0;entryDy=0;entryPerimeter=0;exitX=0.5;exitY=1;exitDx=0;exitDy=0;exitPerimeter=0;" edge="1" parent="1" source="cU6b7BoLXLaZMFe-XiS3-31" target="cU6b7BoLXLaZMFe-XiS3-15">
          <mxGeometry relative="1" as="geometry">
            <mxPoint x="480.0000000000009" y="1270" as="sourcePoint" />
            <mxPoint x="780" y="1470" as="targetPoint" />
            <Array as="points">
              <mxPoint x="480" y="1320" />
              <mxPoint x="480" y="1455" />
            </Array>
          </mxGeometry>
        </mxCell>
        <mxCell id="cU6b7BoLXLaZMFe-XiS3-37" style="edgeStyle=orthogonalEdgeStyle;rounded=0;orthogonalLoop=1;jettySize=auto;html=1;entryX=0;entryY=0.5;entryDx=0;entryDy=0;entryPerimeter=0;fillColor=#fa6800;strokeColor=#C73500;" edge="1" parent="1" source="cU6b7BoLXLaZMFe-XiS3-25">
          <mxGeometry relative="1" as="geometry">
            <mxPoint x="410" y="1765" as="targetPoint" />
          </mxGeometry>
        </mxCell>
        <mxCell id="cU6b7BoLXLaZMFe-XiS3-38" value="Valida los datos recibidos" style="strokeWidth=2;dashed=0;align=center;fontSize=12;fillColor=#c0f5a9;verticalLabelPosition=bottom;verticalAlign=top;shape=mxgraph.eip.recipient_list;" vertex="1" parent="1">
          <mxGeometry x="410" y="1720" width="150" height="90" as="geometry" />
        </mxCell>
        <mxCell id="cU6b7BoLXLaZMFe-XiS3-40" value="Fathor DB Library" style="strokeWidth=2;dashed=0;align=center;fontSize=12;fillColor=#c0f5a9;verticalLabelPosition=bottom;verticalAlign=top;shape=mxgraph.eip.composed_message_processor;" vertex="1" parent="1">
          <mxGeometry x="1250" y="1350" width="150" height="90" as="geometry" />
        </mxCell>
        <mxCell id="cU6b7BoLXLaZMFe-XiS3-41" style="edgeStyle=orthogonalEdgeStyle;rounded=0;orthogonalLoop=1;jettySize=auto;html=1;entryX=0;entryY=0.5;entryDx=0;entryDy=0;entryPerimeter=0;" edge="1" parent="1" source="cU6b7BoLXLaZMFe-XiS3-40" target="cU6b7BoLXLaZMFe-XiS3-9">
          <mxGeometry relative="1" as="geometry" />
        </mxCell>
        <mxCell id="cU6b7BoLXLaZMFe-XiS3-42" style="edgeStyle=orthogonalEdgeStyle;rounded=0;orthogonalLoop=1;jettySize=auto;html=1;entryX=0;entryY=0.5;entryDx=0;entryDy=0;entryPerimeter=0;" edge="1" parent="1" source="cU6b7BoLXLaZMFe-XiS3-15" target="cU6b7BoLXLaZMFe-XiS3-40">
          <mxGeometry relative="1" as="geometry" />
        </mxCell>
        <mxCell id="cU6b7BoLXLaZMFe-XiS3-43" style="edgeStyle=orthogonalEdgeStyle;rounded=0;orthogonalLoop=1;jettySize=auto;html=1;entryX=0.5;entryY=0;entryDx=0;entryDy=0;entryPerimeter=0;" edge="1" parent="1" source="cU6b7BoLXLaZMFe-XiS3-8" target="cU6b7BoLXLaZMFe-XiS3-40">
          <mxGeometry relative="1" as="geometry" />
        </mxCell>
        <mxCell id="cU6b7BoLXLaZMFe-XiS3-47" value="" style="group" vertex="1" connectable="0" parent="1">
          <mxGeometry x="1540" y="1220" width="150" height="90" as="geometry" />
        </mxCell>
        <mxCell id="cU6b7BoLXLaZMFe-XiS3-46" value="Almacenamiento Archivos" style="strokeWidth=2;dashed=0;align=center;fontSize=8;shape=rect;fillColor=#c0f5a9;verticalLabelPosition=bottom;verticalAlign=top;html=1;" vertex="1" parent="cU6b7BoLXLaZMFe-XiS3-47">
          <mxGeometry width="150" height="90" as="geometry" />
        </mxCell>
        <mxCell id="cU6b7BoLXLaZMFe-XiS3-44" value="" style="html=1;verticalLabelPosition=bottom;align=center;labelBackgroundColor=#ffffff;verticalAlign=top;strokeWidth=2;strokeColor=#0080F0;shadow=0;dashed=0;shape=mxgraph.ios7.icons.storage;" vertex="1" parent="cU6b7BoLXLaZMFe-XiS3-47">
          <mxGeometry x="70" y="40" width="68" height="30" as="geometry" />
        </mxCell>
        <mxCell id="cU6b7BoLXLaZMFe-XiS3-49" style="edgeStyle=orthogonalEdgeStyle;rounded=0;orthogonalLoop=1;jettySize=auto;html=1;entryX=0;entryY=0.5;entryDx=0;entryDy=0;" edge="1" parent="1" source="cU6b7BoLXLaZMFe-XiS3-48" target="cU6b7BoLXLaZMFe-XiS3-46">
          <mxGeometry relative="1" as="geometry" />
        </mxCell>
        <mxCell id="cU6b7BoLXLaZMFe-XiS3-48" value="Facthor Utils" style="strokeWidth=2;dashed=0;align=center;fontSize=12;fillColor=#c0f5a9;verticalLabelPosition=bottom;verticalAlign=top;shape=mxgraph.eip.composed_message_processor;" vertex="1" parent="1">
          <mxGeometry x="1250" y="1100" width="150" height="90" as="geometry" />
        </mxCell>
        <mxCell id="cU6b7BoLXLaZMFe-XiS3-50" style="edgeStyle=orthogonalEdgeStyle;rounded=0;orthogonalLoop=1;jettySize=auto;html=1;entryX=0;entryY=0.5;entryDx=0;entryDy=0;entryPerimeter=0;" edge="1" parent="1" source="cU6b7BoLXLaZMFe-XiS3-8" target="cU6b7BoLXLaZMFe-XiS3-48">
          <mxGeometry relative="1" as="geometry" />
        </mxCell>
        <mxCell id="cU6b7BoLXLaZMFe-XiS3-51" value="Configurar usuario" style="strokeWidth=2;dashed=0;align=center;fontSize=12;fillColor=#c0f5a9;verticalLabelPosition=bottom;verticalAlign=top;shape=mxgraph.eip.composed_message_processor;" vertex="1" parent="1">
          <mxGeometry x="640" y="1720" width="150" height="90" as="geometry" />
        </mxCell>
        <mxCell id="cU6b7BoLXLaZMFe-XiS3-56" style="edgeStyle=orthogonalEdgeStyle;rounded=0;orthogonalLoop=1;jettySize=auto;html=1;" edge="1" parent="1" source="cU6b7BoLXLaZMFe-XiS3-52" target="cU6b7BoLXLaZMFe-XiS3-54">
          <mxGeometry relative="1" as="geometry" />
        </mxCell>
        <mxCell id="cU6b7BoLXLaZMFe-XiS3-52" value="Hacienda Library" style="strokeWidth=2;dashed=0;align=center;fontSize=12;fillColor=#c0f5a9;verticalLabelPosition=bottom;verticalAlign=top;shape=mxgraph.eip.composed_message_processor;fontStyle=1" vertex="1" parent="1">
          <mxGeometry x="1250" y="1570" width="150" height="90" as="geometry" />
        </mxCell>
        <mxCell id="cU6b7BoLXLaZMFe-XiS3-54" value="APIs Hacienda" style="ellipse;shape=cloud;whiteSpace=wrap;html=1;align=center;" vertex="1" parent="1">
          <mxGeometry x="1550" y="1572.5" width="130" height="85" as="geometry" />
        </mxCell>
        <mxCell id="cU6b7BoLXLaZMFe-XiS3-57" style="edgeStyle=orthogonalEdgeStyle;rounded=0;orthogonalLoop=1;jettySize=auto;html=1;exitX=1;exitY=0.75;exitDx=0;exitDy=0;exitPerimeter=0;entryX=0;entryY=0.5;entryDx=0;entryDy=0;entryPerimeter=0;" edge="1" parent="1" source="cU6b7BoLXLaZMFe-XiS3-8" target="cU6b7BoLXLaZMFe-XiS3-52">
          <mxGeometry relative="1" as="geometry">
            <Array as="points">
              <mxPoint x="1200" y="1298" />
              <mxPoint x="1200" y="1615" />
            </Array>
          </mxGeometry>
        </mxCell>
        <mxCell id="cU6b7BoLXLaZMFe-XiS3-58" style="edgeStyle=orthogonalEdgeStyle;rounded=0;orthogonalLoop=1;jettySize=auto;html=1;entryX=0;entryY=0.75;entryDx=0;entryDy=0;entryPerimeter=0;fillColor=#fa6800;strokeColor=#C73500;" edge="1" parent="1" source="cU6b7BoLXLaZMFe-XiS3-51" target="cU6b7BoLXLaZMFe-XiS3-52">
          <mxGeometry relative="1" as="geometry">
            <Array as="points">
              <mxPoint x="880" y="1765" />
              <mxPoint x="880" y="1638" />
            </Array>
          </mxGeometry>
        </mxCell>
        <mxCell id="cU6b7BoLXLaZMFe-XiS3-59" style="edgeStyle=orthogonalEdgeStyle;rounded=0;orthogonalLoop=1;jettySize=auto;html=1;entryX=0;entryY=0.75;entryDx=0;entryDy=0;entryPerimeter=0;fillColor=#fa6800;strokeColor=#C73500;" edge="1" parent="1" source="cU6b7BoLXLaZMFe-XiS3-51" target="cU6b7BoLXLaZMFe-XiS3-15">
          <mxGeometry relative="1" as="geometry" />
        </mxCell>
        <mxCell id="cU6b7BoLXLaZMFe-XiS3-60" style="edgeStyle=orthogonalEdgeStyle;rounded=0;orthogonalLoop=1;jettySize=auto;html=1;entryX=0;entryY=0.5;entryDx=0;entryDy=0;entryPerimeter=0;fillColor=#fa6800;strokeColor=#C73500;" edge="1" parent="1" source="cU6b7BoLXLaZMFe-XiS3-38" target="cU6b7BoLXLaZMFe-XiS3-51">
          <mxGeometry relative="1" as="geometry" />
        </mxCell>
        <mxCell id="cU6b7BoLXLaZMFe-XiS3-61" style="edgeStyle=orthogonalEdgeStyle;rounded=0;orthogonalLoop=1;jettySize=auto;html=1;entryX=0;entryY=0.5;entryDx=0;entryDy=0;entryPerimeter=0;fillColor=#fa6800;strokeColor=#C73500;" edge="1" parent="1" source="cU6b7BoLXLaZMFe-XiS3-19" target="cU6b7BoLXLaZMFe-XiS3-25">
          <mxGeometry relative="1" as="geometry" />
        </mxCell>
        <mxCell id="cU6b7BoLXLaZMFe-XiS3-62" value="Facthor Worker" style="strokeWidth=2;dashed=0;align=center;fontSize=12;shape=mxgraph.eip.message_translator;fillColor=#c0f5a9;verticalLabelPosition=bottom;verticalAlign=top;" vertex="1" parent="1">
          <mxGeometry x="1250" y="1930" width="150" height="90" as="geometry" />
        </mxCell>
        <mxCell id="cU6b7BoLXLaZMFe-XiS3-63" style="edgeStyle=orthogonalEdgeStyle;rounded=0;orthogonalLoop=1;jettySize=auto;html=1;entryX=0.75;entryY=1;entryDx=0;entryDy=0;entryPerimeter=0;fillColor=#e3c800;strokeColor=#B09500;" edge="1" parent="1" source="cU6b7BoLXLaZMFe-XiS3-62" target="cU6b7BoLXLaZMFe-XiS3-15">
          <mxGeometry relative="1" as="geometry" />
        </mxCell>
        <mxCell id="cU6b7BoLXLaZMFe-XiS3-64" style="edgeStyle=orthogonalEdgeStyle;rounded=0;orthogonalLoop=1;jettySize=auto;html=1;entryX=1;entryY=1;entryDx=0;entryDy=0;entryPerimeter=0;fillColor=#e3c800;strokeColor=#B09500;" edge="1" parent="1" source="cU6b7BoLXLaZMFe-XiS3-62" target="cU6b7BoLXLaZMFe-XiS3-8">
          <mxGeometry relative="1" as="geometry">
            <Array as="points">
              <mxPoint x="1110" y="1975" />
              <mxPoint x="1110" y="1320" />
            </Array>
          </mxGeometry>
        </mxCell>
        <mxCell id="cU6b7BoLXLaZMFe-XiS3-65" style="edgeStyle=orthogonalEdgeStyle;rounded=0;orthogonalLoop=1;jettySize=auto;html=1;entryX=0;entryY=0.75;entryDx=0;entryDy=0;entryPerimeter=0;fillColor=#e3c800;strokeColor=#B09500;" edge="1" parent="1" source="cU6b7BoLXLaZMFe-XiS3-62" target="cU6b7BoLXLaZMFe-XiS3-48">
          <mxGeometry relative="1" as="geometry">
            <Array as="points">
              <mxPoint x="1180" y="1975" />
              <mxPoint x="1180" y="1168" />
            </Array>
          </mxGeometry>
        </mxCell>
        <mxCell id="cU6b7BoLXLaZMFe-XiS3-66" style="edgeStyle=orthogonalEdgeStyle;rounded=0;orthogonalLoop=1;jettySize=auto;html=1;entryX=0;entryY=1;entryDx=0;entryDy=0;entryPerimeter=0;fillColor=#e3c800;strokeColor=#B09500;" edge="1" parent="1" source="cU6b7BoLXLaZMFe-XiS3-62" target="cU6b7BoLXLaZMFe-XiS3-52">
          <mxGeometry relative="1" as="geometry">
            <Array as="points">
              <mxPoint x="1220" y="1975" />
              <mxPoint x="1220" y="1660" />
            </Array>
          </mxGeometry>
        </mxCell>
        <mxCell id="cU6b7BoLXLaZMFe-XiS3-67" style="edgeStyle=orthogonalEdgeStyle;rounded=0;orthogonalLoop=1;jettySize=auto;html=1;entryX=0.992;entryY=0.476;entryDx=0;entryDy=0;entryPerimeter=0;" edge="1" parent="1" source="cU6b7BoLXLaZMFe-XiS3-51" target="cU6b7BoLXLaZMFe-XiS3-17">
          <mxGeometry relative="1" as="geometry">
            <Array as="points">
              <mxPoint x="715" y="1513" />
            </Array>
          </mxGeometry>
        </mxCell>
      </root>
    </mxGraphModel>
  </diagram>
</mxfile>
